<svg xmlns="http://www.w3.org/2000/svg" viewBox="0 0 24 24" fill="%232563eb"><path d="M11 20.25c0 .414-.336.75-.75.75H8c-1.105 0-2-.895-2-2s.895-2 2-2h1c.414 0 .75.336.75.75V20.25zM17 17.25c0 .414-.336.75-.75.75h-1.5c-.414 0-.75-.336-.75-.75v-1.5c0-.414.336-.75.75-.75h1.5c.414 0 .75.336.75.75v1.5zM11 14.25c0 .414-.336.75-.75.75h-1.5c-.414 0-.75-.336-.75-.75v-1.5c0-.414.336-.75.75-.75h1.5c.414 0 .75.336.75.75v1.5zM17 11.25c0 .414-.336.75-.75.75h-1.5c-.414 0-.75-.336-.75-.75v-1.5c0-.414.336-.75.75-.75h1.5c.414 0 .75.336.75.75v1.5zM11 8.25c0 .414-.336.75-.75.75h-1.5c-.414 0-.75-.336-.75-.75v-1.5c0-.414.336-.75.75-.75h1.5c.414 0 .75.336.75.75v1.5zM17 5.25c0 .414-.336.75-.75.75h-1.5c-.414 0-.75-.336-.75-.75v-1.5C14 3.453 14.895 2 16 2s2 1.453 2 3.25v1.5z"/></svg>
